<?xml version="1.0" encoding="UTF-8"?>
<svg width="140px" height="120px" viewBox="0 0 67 57" version="1.1" xmlns="http://www.w3.org/2000/svg" xmlns:xlink="http://www.w3.org/1999/xlink">

    <title>Stellar Nursery</title>
    <desc>Reach for the Stars</desc>
    <g id="Page-1" stroke="none" stroke-width="1" fill="none" fill-rule="evenodd">
        <g id="Untitled-4"></g>
        <g id="saturn-orbit" transform="translate(10.000000, 3.000000)" fill="#000000">
            <path d="M45,20.3639761 C45,17.8970661 43.2305357,15.88463 40.4598214,14.3299372 C41.3967857,11.2303605 41.5205357,8.50188294 40.8358929,6.3357758 C41.4225,5.74397898 41.7857143,4.92331047 41.7857143,4.01599766 C41.7857143,2.20954605 40.3473214,0.746401985 38.5714286,0.746401985 C37.6682143,0.746401985 36.855,1.12730988 36.2716071,1.73708948 C35.3732143,1.43465188 34.3816071,1.2646329 33.2951786,1.2646329 C29.6566071,1.2646329 25.3044643,2.89125675 20.9989286,5.7292658 C13.7153571,6.49435119 8.03571429,12.7539921 8.03571429,20.3639761 C8.03571429,20.8773026 8.06303571,21.3840899 8.11285714,21.8843381 C10.7180357,23.1153408 15.3883929,24.4509707 22.5,24.4509707 C29.6116071,24.4509707 34.2819643,23.1153408 36.8871429,21.8843381 C36.9369643,21.3840899 36.9642857,20.8773026 36.9642857,20.3639761 C36.9642857,12.8046709 31.3569643,6.58263027 24.1441071,5.75215297 C27.4210714,3.93916217 30.6192857,2.89943074 33.2951786,2.89943074 C34.1003571,2.89943074 34.8058929,3.03021457 35.4664286,3.21658152 C35.4021429,3.47487958 35.3571429,3.73971683 35.3571429,4.01599766 C35.3571429,5.82244928 36.7955357,7.28559334 38.5714286,7.28559334 C38.8382143,7.28559334 39.09375,7.2430886 39.34125,7.18096628 C39.7960714,8.95472194 39.6642857,11.1404467 38.9603571,13.571391 C38.9201786,13.5534083 38.8832143,13.5321559 38.8430357,13.5141731 C39.0825,14.1059699 39.2753571,14.7206539 39.4489286,15.3418771 C39.51,15.56094 39.5646429,15.7800029 39.6176786,16.0007006 C39.7639286,16.6072106 39.8973214,17.218625 39.9841071,17.8463874 C41.1492857,18.6981171 41.7841071,19.5743687 41.7841071,20.3639761 C41.7841071,23.0940885 34.4475,26.9031674 22.4983929,26.9031674 C10.5492857,26.9031674 3.21267857,23.0940885 3.21267857,20.3639761 C3.21267857,19.5743687 3.8475,18.6964823 5.01267857,17.8463874 C5.22160714,16.3358342 5.60089286,14.8808641 6.15535714,13.5141731 C2.46214286,15.1522405 0,17.4425923 0,20.3639761 C0,22.8406948 1.755,24.8711137 4.53696429,26.4307108 C3.12589286,31.119311 3.5775,34.9659904 5.86125,37.2890381 C7.25785714,38.7113122 9.27964286,39.4616844 11.7064286,39.4616844 C15.345,39.4616844 19.6955357,37.8203474 24.0010714,34.9807035 C28.2760714,34.5262297 31.9805357,32.1753905 34.32375,28.7684718 C40.4260714,27.2088746 45,24.3659612 45,20.3639761 Z M38.5714286,5.6507955 C37.6858929,5.6507955 36.9642857,4.91677127 36.9642857,4.01599766 C36.9642857,3.11522405 37.6858929,2.38119982 38.5714286,2.38119982 C39.4569643,2.38119982 40.1785714,3.11522405 40.1785714,4.01599766 C40.1785714,4.91677127 39.4569643,5.6507955 38.5714286,5.6507955 Z M11.7048214,37.8285214 C9.68625,37.8285214 8.10160714,37.2579769 6.99589286,36.1348708 C5.14285714,34.2499489 4.92267857,30.981988 6.02357143,27.1745439 C7.41696429,27.8023062 8.98392857,28.3368851 10.6778571,28.7717414 C12.9921429,32.1361553 16.6339286,34.4788206 20.8430357,34.9725296 C17.5708929,36.7838856 14.3791071,37.8285214 11.7048214,37.8285214 Z" id="Shape" fill-rule="nonzero"></path>
            <polygon id="Path" points="37.7979163 34.200313 36.4990905 30 35.2002646 34.200313 31 34.200313 34.3980486 36.7977743 33.0992228 41 36.4990905 38.4025387 39.8989582 41 38.6001323 36.7977743 42 34.200313"></polygon>
            <polygon id="Path" points="4.528 9 7 7.11195795 9.472 9 8.528 5.94507227 11 4.05492773 7.944 4.05492773 7 1 6.056 4.05492773 3 4.05492773 5.472 5.94507227"></polygon>
        </g>
        <text id="Stellar-Nursery" font-family="Futura-Medium, Futura" font-size="8.48484848" font-weight="400" fill="#000000">
            <tspan x="4.01544744" y="50">Stellar Nursery</tspan>
        </text>
    </g>
</svg>